#!OML:ASF \\Waltz\H\Terrain\Patient Classification 1\Animal2\Wednesday\Animal2.ASF
:FULLY-SPECIFIED
:DEGREES
2591
root 10.6619 17.6554 -3.34111 8.67427 -30.6811 -3.42586
lowerback 0.489946 -10.5535 -4.07561
upperback -7.35032 -14.3114 2.40117
thorax -6.39437 -6.84435 5.3764
lowerneck 4.18362 5.08118 13.7936
upperneck 8.75468 8.16933 -16.758
head 3.1091 4.06773 -7.31651
rclavicle -1.3572e-013 -2.54444e-014
rhumerus -46.1152 -22.9379 -42.3253
rradius 142.276
rwrist 11.9115
rhand -43.07 20.7702
rfingers 7.12502
rthumb -15.9258 -8.59502
lclavicle -1.3572e-013 -2.54444e-014
lhumerus -43.2556 10.204 72.1995
lradius 129.378
lwrist -22.1399
lhand -55.5714 -14.963
lfingers 7.12502
lthumb -27.9265 12.9803
rfemur -25.308 11.9164 14.883
rtibia 31.6801
rfoot -13.3087 21.4371
rtoes 33.9999
lfemur -3.29891 5.49823 -11.7935
ltibia 23.3804
lfoot -23.9675 21.7262
ltoes -20.8791
2592
root 10.672 17.6748 -3.31476 8.96065 -29.689 -3.47344
lowerback 0.172716 -10.2494 -3.77211
upperback -7.45412 -13.8742 2.51197
thorax -6.4136 -6.64083 5.28363
lowerneck 4.78591 5.97137 14.2442
upperneck 8.43171 9.38884 -15.8894
head 3.09958 4.74461 -7.06396
rclavicle 7.45443e-016 6.75868e-015
rhumerus -46.102 -22.865 -41.9935
rradius 142.006
rwrist 11.6803
rhand -42.6096 20.3903
rfingers 7.12502
rthumb -15.4823 -9.00975
lclavicle 7.45443e-016 6.75868e-015
lhumerus -43.5612 10.3256 72.031
lradius 129.76
lwrist -20.7923
lhand -54.7984 -17.6409
lfingers 7.12502
lthumb -27.1873 10.4204
rfemur -25.087 10.9276 14.957
rtibia 31.2256
rfoot -13.0155 21.5484
rtoes 34.039
lfemur -3.62211 4.58466 -11.7481
ltibia 23.0884
lfoot -24.196 21.4333
ltoes -18.938
2593
root 10.6854 17.6856 -3.28149 9.07986 -28.6726 -3.60332
lowerback -0.0266316 -10.0128 -3.27328
upperback -7.47047 -13.5227 2.60426
thorax -6.44155 -6.49049 5.08931
lowerneck 5.61938 6.89166 14.5677
upperneck 7.79195 10.6422 -14.9361
head 2.94727 5.44168 -6.77336
rclavicle -1.48194e-013 -1.39149e-015
rhumerus -45.8823 -22.7843 -41.8963
rradius 141.737
rwrist 11.4031
rhand -42.0121 19.7934
rfingers 7.12502
rthumb -14.9069 -9.65023
lclavicle -1.48194e-013 -1.39149e-015
lhumerus -43.821 10.1789 72.2404
lradius 129.717
lwrist -22.7386
lhand -55.8583 -12.105
lfingers 7.12502
lthumb -28.2008 15.7933
rfemur -24.641 10.115 15.11
rtibia 30.8279
rfoot -13.2466 21.4205
rtoes 32.9461
lfemur -3.75634 3.48108 -11.6286
ltibia 22.8397
lfoot -24.3133 21.4452
ltoes -19.1717
2594
root 10.6984 17.6957 -3.25581 9.15707 -27.6118 -3.55533
lowerback -0.109402 -9.87005 -2.99841
upperback -7.5863 -13.3139 2.72508
thorax -6.57073 -6.39266 5.07163
lowerneck 6.51529 7.89962 15.0509
upperneck 7.28392 12.067 -14.2178
head 2.86353 6.2157 -6.5826
rclavicle -2.36802e-014 -3.97569e-016
rhumerus -45.6185 -22.5939 -41.8104
rradius 141.596
rwrist 11.048
rhand -40.9639 19.626
rfingers 7.12502
rthumb -13.8968 -9.88965
lclavicle -2.36802e-014 -3.97569e-016
lhumerus -44.097 10.4614 71.8912
lradius 129.876
lwrist -22.5468
lhand -55.6334 -11.0596
lfingers 7.12502
lthumb -27.9858 16.8741
rfemur -24.2797 9.042 15.129
rtibia 30.4753
rfoot -13.3651 21.5925
rtoes 33.186
lfemur -3.99167 2.5266 -11.6466
ltibia 22.6592
lfoot -24.1778 21.5831
ltoes -20.4774
2595
root 10.7087 17.704 -3.23223 9.188 -26.6207 -3.50393
lowerback -0.282742 -9.65799 -2.77649
upperback -7.57985 -13.0103 2.76928
thorax -6.53063 -6.25479 4.96649
lowerneck 7.05172 8.89022 15.846
upperneck 6.99314 13.4833 -13.6864
head 2.93038 6.97112 -6.47738
rclavicle 9.90196e-014 3.4191e-014
rhumerus -45.353 -22.3583 -41.8915
rradius 141.404
rwrist 10.8922
rhand -40.0884 20.3716
rfingers 7.12502
rthumb -13.053 -9.19996
lclavicle 9.90196e-014 3.4191e-014
lhumerus -44.2539 10.6158 71.3835
lradius 130.062
lwrist -22.3996
lhand -55.5335 -9.57964
lfingers 7.12502
lthumb -27.8904 18.3696
rfemur -23.9216 7.80143 15.1888
rtibia 30.167
rfoot -13.282 21.9508
rtoes 33.8572
lfemur -4.18771 1.81261 -11.6404
ltibia 22.5227
lfoot -23.6347 21.8188
ltoes -22.0697
2596
root 10.7178 17.7104 -3.20971 9.36925 -25.8365 -3.52841
lowerback -0.712796 -9.24235 -2.50389
upperback -7.50093 -12.4262 2.76722
thorax -6.31023 -5.98976 4.72735
lowerneck 7.44182 9.74086 16.5579
upperneck 6.67649 14.6852 -13.084
head 2.97078 7.60859 -6.33628
rclavicle 1.20588e-013 3.46879e-014
rhumerus -45.2347 -22.3641 -41.8529
rradius 141.16
rwrist 10.8537
rhand -39.8311 20.7965
rfingers 7.12502
rthumb -12.805 -8.79074
lclavicle 1.20588e-013 3.46879e-014
lhumerus -44.108 10.6096 70.8754
lradius 130.294
lwrist -22.4157
lhand -55.3638 -8.59575
lfingers 7.12502
lthumb -27.728 19.3797
rfemur -23.7557 6.95931 15.2515
rtibia 29.8686
rfoot -12.9247 22.1045
rtoes 34.5749
lfemur -4.48027 1.17471 -11.5743
ltibia 22.4375
lfoot -23.4776 21.7242
ltoes -21.5914
2597
root 10.729 17.7175 -3.18985 9.5666 -25.0488 -3.60051
lowerback -1.0854 -8.79803 -2.19075
upperback -7.43381 -11.8075 2.7664
thorax -6.1407 -5.70605 4.48462
lowerneck 8.10773 10.5888 17.0442
upperneck 6.06763 15.8804 -12.2756
head 2.84399 8.23992 -6.11972
rclavicle -8.26385e-014 2.68359e-015
rhumerus -45.174 -22.4877 -41.7788
rradius 140.964
rwrist 10.9513
rhand -40.027 20.3709
rfingers 7.12502
rthumb -12.9938 -9.20441
lclavicle -8.26385e-014 2.68359e-015
lhumerus -43.8741 10.7593 70.083
lradius 130.75
lwrist -21.0782
lhand -54.6505 -10.9228
lfingers 7.12502
lthumb -27.0458 17.1604
rfemur -23.5668 6.34021 15.3313
rtibia 29.5646
rfoot -12.7799 22.0695
rtoes 34.7855
lfemur -4.79237 0.5748 -11.4429
ltibia 22.42
lfoot -23.8179 21.2525
ltoes -19.3562
